<svg width="800" height="500" viewBox="0 0 800 500" xmlns="http://www.w3.org/2000/svg">
  <defs>
    <linearGradient id="g" x1="0%" y1="0%" x2="100%" y2="100%">
      <stop offset="0%" stop-color="#0a1829"/>
      <stop offset="100%" stop-color="#050f1a"/>
    </linearGradient>
    <linearGradient id="bar" x1="0%" y1="0%" x2="100%" y2="0%">
      <stop offset="0%" stop-color="#60a5fa" stop-opacity="0.9"/>
      <stop offset="100%" stop-color="#2563eb" stop-opacity="0.7"/>
    </linearGradient>
    <clipPath id="clip"><rect width="800" height="500" rx="0"/></clipPath>
    <filter id="softText">
      <feGaussianBlur stdDeviation="2"/>
    </filter>
  </defs>

  <rect width="800" height="500" fill="url(#g)" clip-path="url(#clip)"/>

  <ellipse cx="400" cy="220" rx="280" ry="160" fill="#60a5fa" opacity="0.08"/>

  <rect x="32" y="32" width="736" height="348" rx="12" fill="rgba(0,0,0,0.45)"/>

  <rect x="32" y="32" width="736" height="38" rx="12" fill="#070d1a"/>
  <rect x="32" y="56" width="736" height="14" fill="#070d1a"/>

  <circle cx="62"  cy="51" r="7" fill="#ff5f57" opacity="0.95"/>
  <circle cx="88"  cy="51" r="7" fill="#febc2e" opacity="0.95"/>
  <circle cx="114" cy="51" r="7" fill="#28c840" opacity="0.95"/>

  <rect x="140" y="38" width="160" height="26" rx="5" fill="rgba(255,255,255,0.07)"/>
  <text x="160" y="55" fill="rgba(255,255,255,0.55)" font-size="11" font-family="monospace">color-palette-generator.html</text>

  <rect x="32" y="70" width="52" height="310" fill="rgba(0,0,0,0.2)"/>

  <text x="52" y="92" text-anchor="end" fill="rgba(255,255,255,0.15)" font-size="10" font-family="monospace">1</text>
  <rect x="100" y="82" width="514" height="13" rx="2" fill="rgba(255,255,255,0.13872847327932913)" opacity="1"/>
  <text x="52" y="110" text-anchor="end" fill="rgba(255,255,255,0.15)" font-size="10" font-family="monospace">2</text>
  <rect x="80" y="100" width="478" height="13" rx="2" fill="rgba(255,255,255,0.08336230740495079)" opacity="1"/>
  <text x="52" y="128" text-anchor="end" fill="rgba(255,255,255,0.15)" font-size="10" font-family="monospace">3</text>
  <rect x="60" y="118" width="587" height="13" rx="2" fill="rgba(255,255,255,0.12538016164334959)" opacity="1"/>
  <rect x="659" y="118" width="90" height="13" rx="2" fill="rgba(255,255,255,0.07035012490124212)" opacity="0.6"/>
  <text x="52" y="146" text-anchor="end" fill="rgba(255,255,255,0.15)" font-size="10" font-family="monospace">4</text>
  <rect x="60" y="136" width="274" height="13" rx="2" fill="rgba(255,255,255,0.13668653983545642)" opacity="1"/>
  <text x="52" y="164" text-anchor="end" fill="rgba(255,255,255,0.15)" font-size="10" font-family="monospace">5</text>
  <rect x="100" y="154" width="398" height="13" rx="2" fill="rgba(255,255,255,0.13140062477239423)" opacity="1"/>
  <rect x="510" y="154" width="55" height="13" rx="2" fill="rgba(255,255,255,0.08306514778711488)" opacity="0.6"/>
  <text x="52" y="182" text-anchor="end" fill="rgba(255,255,255,0.15)" font-size="10" font-family="monospace">6</text>
  <rect x="80" y="172" width="430" height="13" rx="2" fill="rgba(255,255,255,0.1259014328536348)" opacity="1"/>
  <text x="52" y="200" text-anchor="end" fill="rgba(255,255,255,0.15)" font-size="10" font-family="monospace">7</text>
  <rect x="60" y="190" width="654" height="13" rx="2" fill="rgba(255,255,255,0.12980825692177944)" opacity="1"/>
  <text x="52" y="218" text-anchor="end" fill="rgba(255,255,255,0.15)" font-size="10" font-family="monospace">8</text>
  <rect x="100" y="208" width="608" height="13" rx="2" fill="rgba(255,255,255,0.0701975105354091)" opacity="1"/>
  <text x="52" y="236" text-anchor="end" fill="rgba(255,255,255,0.15)" font-size="10" font-family="monospace">9</text>
  <rect x="100" y="226" width="510" height="13" rx="2" fill="rgba(255,255,255,0.1140117098889341)" opacity="1"/>
  <text x="52" y="254" text-anchor="end" fill="rgba(255,255,255,0.15)" font-size="10" font-family="monospace">10</text>
  <rect x="100" y="244" width="541" height="13" rx="2" fill="rgba(255,255,255,0.09136083301886935)" opacity="1"/>
  <text x="52" y="272" text-anchor="end" fill="rgba(255,255,255,0.15)" font-size="10" font-family="monospace">11</text>
  <rect x="60" y="262" width="95" height="13" rx="2" fill="rgba(255,255,255,0.12916788791985434)" opacity="1"/>
  <text x="52" y="290" text-anchor="end" fill="rgba(255,255,255,0.15)" font-size="10" font-family="monospace">12</text>
  <rect x="80" y="280" width="267" height="13" rx="2" fill="#60a5fa" opacity="0.55"/>
  <rect x="359" y="280" width="108" height="13" rx="2" fill="#2563eb" opacity="0.6"/>
  <text x="52" y="308" text-anchor="end" fill="rgba(255,255,255,0.15)" font-size="10" font-family="monospace">13</text>
  <rect x="60" y="298" width="142" height="13" rx="2" fill="rgba(255,255,255,0.12550763580610685)" opacity="1"/>
  <rect x="214" y="298" width="82" height="13" rx="2" fill="rgba(255,255,255,0.05252274269064021)" opacity="0.6"/>
  <text x="52" y="326" text-anchor="end" fill="rgba(255,255,255,0.15)" font-size="10" font-family="monospace">14</text>
  <rect x="80" y="316" width="542" height="13" rx="2" fill="rgba(255,255,255,0.12605022757920675)" opacity="1"/>

  <text
    x="400"
    y="295"
    text-anchor="middle"
    fill="rgba(248,250,252,0.22)"
    font-size="52"
    font-weight="900"
    font-family="system-ui,sans-serif"
    letter-spacing="-2"
  >
    Color Palette Gene...
  </text>

  <text
    x="400"
    y="295"
    text-anchor="middle"
    fill="rgba(255,255,255,0.06)"
    font-size="52"
    font-weight="900"
    font-family="system-ui,sans-serif"
    letter-spacing="-2"
    filter="url(#softText)"
  >
    Color Palette Gene...
  </text>

  <rect x="0" y="400" width="800" height="100" fill="rgba(0,0,0,0.55)"/>

  <rect x="0" y="400" width="800" height="3" fill="url(#bar)"/>

  <circle cx="72" cy="450" r="28" fill="#60a5fa" opacity="0.18"/>
  <circle cx="72" cy="450" r="22" fill="#60a5fa" opacity="0.22"/>
  <text x="72" y="456" text-anchor="middle" fill="#60a5fa" font-size="15" font-weight="800" font-family="system-ui,sans-serif">UD</text>

  <text x="112" y="440" fill="rgba(255,255,255,0.92)" font-size="17" font-weight="800" font-family="system-ui,sans-serif" letter-spacing="-0.5">Color Palette Generator</text>

  <rect x="112" y="455" width="51" height="20" rx="10" fill="#60a5fa" opacity="0.22"/>
  <text x="137.5" y="469" text-anchor="middle" fill="#60a5fa" font-size="10" font-weight="700" font-family="system-ui,sans-serif">COLOR</text>

  <rect x="169" y="455" width="58" height="20" rx="10" fill="rgba(255,255,255,0.08)"/>
  <text x="198" y="469" text-anchor="middle" fill="rgba(255,255,255,0.5)" font-size="10" font-weight="600" font-family="system-ui,sans-serif">DESIGN</text>

  <rect x="233" y="455" width="65" height="20" rx="10" fill="rgba(255,255,255,0.06)"/>
  <text x="265.5" y="469" text-anchor="middle" fill="rgba(255,255,255,0.35)" font-size="10" font-weight="600" font-family="system-ui,sans-serif">UTILITY</text>
</svg>