<svg width="800" height="500" viewBox="0 0 800 500" xmlns="http://www.w3.org/2000/svg">
  <defs>
    <linearGradient id="g" x1="0%" y1="0%" x2="100%" y2="100%">
      <stop offset="0%" stop-color="#1a1400"/>
      <stop offset="100%" stop-color="#110d00"/>
    </linearGradient>
    <linearGradient id="bar" x1="0%" y1="0%" x2="100%" y2="0%">
      <stop offset="0%" stop-color="#fbbf24" stop-opacity="0.9"/>
      <stop offset="100%" stop-color="#f59e0b" stop-opacity="0.7"/>
    </linearGradient>
    <clipPath id="clip"><rect width="800" height="500" rx="0"/></clipPath>
    <filter id="softText">
      <feGaussianBlur stdDeviation="2"/>
    </filter>
  </defs>

  <rect width="800" height="500" fill="url(#g)" clip-path="url(#clip)"/>

  <ellipse cx="400" cy="220" rx="280" ry="160" fill="#fbbf24" opacity="0.08"/>

  <rect x="32" y="32" width="736" height="348" rx="12" fill="rgba(0,0,0,0.45)"/>

  <rect x="32" y="32" width="736" height="38" rx="12" fill="#130f00"/>
  <rect x="32" y="56" width="736" height="14" fill="#130f00"/>

  <circle cx="62"  cy="51" r="7" fill="#ff5f57" opacity="0.95"/>
  <circle cx="88"  cy="51" r="7" fill="#febc2e" opacity="0.95"/>
  <circle cx="114" cy="51" r="7" fill="#28c840" opacity="0.95"/>

  <rect x="140" y="38" width="160" height="26" rx="5" fill="rgba(255,255,255,0.07)"/>
  <text x="160" y="55" fill="rgba(255,255,255,0.55)" font-size="11" font-family="monospace">developer-portfolio-builder.html</text>

  <rect x="32" y="70" width="52" height="310" fill="rgba(0,0,0,0.2)"/>

  <text x="52" y="92" text-anchor="end" fill="rgba(255,255,255,0.15)" font-size="10" font-family="monospace">1</text>
  <rect x="60" y="82" width="568" height="13" rx="2" fill="rgba(255,255,255,0.11542482366213222)" opacity="1"/>
  <text x="52" y="110" text-anchor="end" fill="rgba(255,255,255,0.15)" font-size="10" font-family="monospace">2</text>
  <rect x="100" y="100" width="471" height="13" rx="2" fill="rgba(255,255,255,0.1258888712306248)" opacity="1"/>
  <text x="52" y="128" text-anchor="end" fill="rgba(255,255,255,0.15)" font-size="10" font-family="monospace">3</text>
  <rect x="100" y="118" width="499" height="13" rx="2" fill="rgba(255,255,255,0.07171861116115902)" opacity="1"/>
  <text x="52" y="146" text-anchor="end" fill="rgba(255,255,255,0.15)" font-size="10" font-family="monospace">4</text>
  <rect x="100" y="136" width="561" height="13" rx="2" fill="#fbbf24" opacity="0.55"/>
  <text x="52" y="164" text-anchor="end" fill="rgba(255,255,255,0.15)" font-size="10" font-family="monospace">5</text>
  <rect x="60" y="154" width="506" height="13" rx="2" fill="rgba(255,255,255,0.09758742709587967)" opacity="1"/>
  <text x="52" y="182" text-anchor="end" fill="rgba(255,255,255,0.15)" font-size="10" font-family="monospace">6</text>
  <rect x="60" y="172" width="693" height="13" rx="2" fill="rgba(255,255,255,0.10603092965810348)" opacity="1"/>
  <text x="52" y="200" text-anchor="end" fill="rgba(255,255,255,0.15)" font-size="10" font-family="monospace">7</text>
  <rect x="100" y="190" width="522" height="13" rx="2" fill="rgba(255,255,255,0.13004251200473926)" opacity="1"/>
  <text x="52" y="218" text-anchor="end" fill="rgba(255,255,255,0.15)" font-size="10" font-family="monospace">8</text>
  <rect x="80" y="208" width="497" height="13" rx="2" fill="#fbbf24" opacity="0.55"/>
  <rect x="589" y="208" width="82" height="13" rx="2" fill="#f59e0b" opacity="0.6"/>
  <text x="52" y="236" text-anchor="end" fill="rgba(255,255,255,0.15)" font-size="10" font-family="monospace">9</text>
  <rect x="100" y="226" width="455" height="13" rx="2" fill="rgba(255,255,255,0.08591627054519864)" opacity="1"/>
  <rect x="567" y="226" width="80" height="13" rx="2" fill="rgba(255,255,255,0.05220723974104208)" opacity="0.6"/>
  <text x="52" y="254" text-anchor="end" fill="rgba(255,255,255,0.15)" font-size="10" font-family="monospace">10</text>
  <rect x="80" y="244" width="651" height="13" rx="2" fill="rgba(255,255,255,0.1109548974528338)" opacity="1"/>
  <text x="52" y="272" text-anchor="end" fill="rgba(255,255,255,0.15)" font-size="10" font-family="monospace">11</text>
  <rect x="100" y="262" width="394" height="13" rx="2" fill="rgba(255,255,255,0.13553121013462804)" opacity="1"/>
  <text x="52" y="290" text-anchor="end" fill="rgba(255,255,255,0.15)" font-size="10" font-family="monospace">12</text>
  <rect x="100" y="280" width="659" height="13" rx="2" fill="rgba(255,255,255,0.1201283490984068)" opacity="1"/>
  <text x="52" y="308" text-anchor="end" fill="rgba(255,255,255,0.15)" font-size="10" font-family="monospace">13</text>
  <rect x="80" y="298" width="277" height="13" rx="2" fill="rgba(255,255,255,0.11466100464916346)" opacity="1"/>
  <rect x="369" y="298" width="63" height="13" rx="2" fill="rgba(255,255,255,0.051531917218009926)" opacity="0.6"/>
  <text x="52" y="326" text-anchor="end" fill="rgba(255,255,255,0.15)" font-size="10" font-family="monospace">14</text>
  <rect x="80" y="316" width="99" height="13" rx="2" fill="rgba(255,255,255,0.06274930780817506)" opacity="1"/>
  <rect x="191" y="316" width="43" height="13" rx="2" fill="rgba(255,255,255,0.057476686187432305)" opacity="0.6"/>

  <text
    x="400"
    y="295"
    text-anchor="middle"
    fill="rgba(248,250,252,0.22)"
    font-size="52"
    font-weight="900"
    font-family="system-ui,sans-serif"
    letter-spacing="-2"
  >
    Developer Portfoli...
  </text>

  <text
    x="400"
    y="295"
    text-anchor="middle"
    fill="rgba(255,255,255,0.06)"
    font-size="52"
    font-weight="900"
    font-family="system-ui,sans-serif"
    letter-spacing="-2"
    filter="url(#softText)"
  >
    Developer Portfoli...
  </text>

  <rect x="0" y="400" width="800" height="100" fill="rgba(0,0,0,0.55)"/>

  <rect x="0" y="400" width="800" height="3" fill="url(#bar)"/>

  <circle cx="72" cy="450" r="28" fill="#fbbf24" opacity="0.18"/>
  <circle cx="72" cy="450" r="22" fill="#fbbf24" opacity="0.22"/>
  <text x="72" y="456" text-anchor="middle" fill="#fbbf24" font-size="15" font-weight="800" font-family="system-ui,sans-serif">MV</text>

  <text x="112" y="440" fill="rgba(255,255,255,0.92)" font-size="17" font-weight="800" font-family="system-ui,sans-serif" letter-spacing="-0.5">Developer Portfolio Builder</text>

  <rect x="112" y="455" width="79" height="20" rx="10" fill="#fbbf24" opacity="0.22"/>
  <text x="151.5" y="469" text-anchor="middle" fill="#fbbf24" font-size="10" font-weight="700" font-family="system-ui,sans-serif">PORTFOLIO</text>

  <rect x="197" y="455" width="65" height="20" rx="10" fill="rgba(255,255,255,0.08)"/>
  <text x="229.5" y="469" text-anchor="middle" fill="rgba(255,255,255,0.5)" font-size="10" font-weight="600" font-family="system-ui,sans-serif">BUILDER</text>

  <rect x="268" y="455" width="86" height="20" rx="10" fill="rgba(255,255,255,0.06)"/>
  <text x="311" y="469" text-anchor="middle" fill="rgba(255,255,255,0.35)" font-size="10" font-weight="600" font-family="system-ui,sans-serif">VANILLA-JS</text>
</svg>