<svg width="800" height="500" viewBox="0 0 800 500" xmlns="http://www.w3.org/2000/svg">
  <defs>
    <linearGradient id="g" x1="0%" y1="0%" x2="100%" y2="100%">
      <stop offset="0%" stop-color="#1a1400"/>
      <stop offset="100%" stop-color="#110d00"/>
    </linearGradient>
    <linearGradient id="bar" x1="0%" y1="0%" x2="100%" y2="0%">
      <stop offset="0%" stop-color="#fbbf24" stop-opacity="0.9"/>
      <stop offset="100%" stop-color="#f59e0b" stop-opacity="0.7"/>
    </linearGradient>
    <clipPath id="clip"><rect width="800" height="500" rx="0"/></clipPath>
    <filter id="softText">
      <feGaussianBlur stdDeviation="2"/>
    </filter>
  </defs>

  <rect width="800" height="500" fill="url(#g)" clip-path="url(#clip)"/>

  <ellipse cx="400" cy="220" rx="280" ry="160" fill="#fbbf24" opacity="0.08"/>

  <rect x="32" y="32" width="736" height="348" rx="12" fill="rgba(0,0,0,0.45)"/>

  <rect x="32" y="32" width="736" height="38" rx="12" fill="#130f00"/>
  <rect x="32" y="56" width="736" height="14" fill="#130f00"/>

  <circle cx="62"  cy="51" r="7" fill="#ff5f57" opacity="0.95"/>
  <circle cx="88"  cy="51" r="7" fill="#febc2e" opacity="0.95"/>
  <circle cx="114" cy="51" r="7" fill="#28c840" opacity="0.95"/>

  <rect x="140" y="38" width="160" height="26" rx="5" fill="rgba(255,255,255,0.07)"/>
  <text x="160" y="55" fill="rgba(255,255,255,0.55)" font-size="11" font-family="monospace">ecommerce-store.html</text>

  <rect x="32" y="70" width="52" height="310" fill="rgba(0,0,0,0.2)"/>

  <text x="52" y="92" text-anchor="end" fill="rgba(255,255,255,0.15)" font-size="10" font-family="monospace">1</text>
  <rect x="60" y="82" width="336" height="13" rx="2" fill="rgba(255,255,255,0.11795877096661338)" opacity="1"/>
  <text x="52" y="110" text-anchor="end" fill="rgba(255,255,255,0.15)" font-size="10" font-family="monospace">2</text>
  <rect x="80" y="100" width="120" height="13" rx="2" fill="rgba(255,255,255,0.12930043851707607)" opacity="1"/>
  <text x="52" y="128" text-anchor="end" fill="rgba(255,255,255,0.15)" font-size="10" font-family="monospace">3</text>
  <rect x="80" y="118" width="478" height="13" rx="2" fill="rgba(255,255,255,0.0813984425043218)" opacity="1"/>
  <text x="52" y="146" text-anchor="end" fill="rgba(255,255,255,0.15)" font-size="10" font-family="monospace">4</text>
  <rect x="100" y="136" width="659" height="13" rx="2" fill="rgba(255,255,255,0.13514436397588447)" opacity="1"/>
  <text x="52" y="164" text-anchor="end" fill="rgba(255,255,255,0.15)" font-size="10" font-family="monospace">5</text>
  <rect x="80" y="154" width="657" height="13" rx="2" fill="rgba(255,255,255,0.07968328038688825)" opacity="1"/>
  <text x="52" y="182" text-anchor="end" fill="rgba(255,255,255,0.15)" font-size="10" font-family="monospace">6</text>
  <rect x="80" y="172" width="500" height="13" rx="2" fill="rgba(255,255,255,0.11369821378348818)" opacity="1"/>
  <text x="52" y="200" text-anchor="end" fill="rgba(255,255,255,0.15)" font-size="10" font-family="monospace">7</text>
  <rect x="80" y="190" width="311" height="13" rx="2" fill="rgba(255,255,255,0.08115104243651755)" opacity="1"/>
  <rect x="403" y="190" width="52" height="13" rx="2" fill="rgba(255,255,255,0.07160176241807681)" opacity="0.6"/>
  <text x="52" y="218" text-anchor="end" fill="rgba(255,255,255,0.15)" font-size="10" font-family="monospace">8</text>
  <rect x="100" y="208" width="355" height="13" rx="2" fill="#fbbf24" opacity="0.55"/>
  <rect x="467" y="208" width="50" height="13" rx="2" fill="#f59e0b" opacity="0.6"/>
  <text x="52" y="236" text-anchor="end" fill="rgba(255,255,255,0.15)" font-size="10" font-family="monospace">9</text>
  <rect x="60" y="226" width="596" height="13" rx="2" fill="rgba(255,255,255,0.11271657782902861)" opacity="1"/>
  <text x="52" y="254" text-anchor="end" fill="rgba(255,255,255,0.15)" font-size="10" font-family="monospace">10</text>
  <rect x="60" y="244" width="180" height="13" rx="2" fill="rgba(255,255,255,0.07109106505547907)" opacity="1"/>
  <text x="52" y="272" text-anchor="end" fill="rgba(255,255,255,0.15)" font-size="10" font-family="monospace">11</text>
  <rect x="60" y="262" width="599" height="13" rx="2" fill="rgba(255,255,255,0.09817535611758366)" opacity="1"/>
  <text x="52" y="290" text-anchor="end" fill="rgba(255,255,255,0.15)" font-size="10" font-family="monospace">12</text>
  <rect x="100" y="280" width="169" height="13" rx="2" fill="#fbbf24" opacity="0.55"/>
  <text x="52" y="308" text-anchor="end" fill="rgba(255,255,255,0.15)" font-size="10" font-family="monospace">13</text>
  <rect x="100" y="298" width="344" height="13" rx="2" fill="rgba(255,255,255,0.07301230537076767)" opacity="1"/>
  <rect x="456" y="298" width="95" height="13" rx="2" fill="rgba(255,255,255,0.04471236731501119)" opacity="0.6"/>
  <text x="52" y="326" text-anchor="end" fill="rgba(255,255,255,0.15)" font-size="10" font-family="monospace">14</text>
  <rect x="60" y="316" width="182" height="13" rx="2" fill="rgba(255,255,255,0.1034330354545808)" opacity="1"/>

  <text
    x="400"
    y="295"
    text-anchor="middle"
    fill="rgba(248,250,252,0.22)"
    font-size="52"
    font-weight="900"
    font-family="system-ui,sans-serif"
    letter-spacing="-2"
  >
    Ecommerce Store
  </text>

  <text
    x="400"
    y="295"
    text-anchor="middle"
    fill="rgba(255,255,255,0.06)"
    font-size="52"
    font-weight="900"
    font-family="system-ui,sans-serif"
    letter-spacing="-2"
    filter="url(#softText)"
  >
    Ecommerce Store
  </text>

  <rect x="0" y="400" width="800" height="100" fill="rgba(0,0,0,0.55)"/>

  <rect x="0" y="400" width="800" height="3" fill="url(#bar)"/>

  <circle cx="72" cy="450" r="28" fill="#fbbf24" opacity="0.18"/>
  <circle cx="72" cy="450" r="22" fill="#fbbf24" opacity="0.22"/>
  <text x="72" y="456" text-anchor="middle" fill="#fbbf24" font-size="15" font-weight="800" font-family="system-ui,sans-serif">GM</text>

  <text x="112" y="440" fill="rgba(255,255,255,0.92)" font-size="17" font-weight="800" font-family="system-ui,sans-serif" letter-spacing="-0.5">Ecommerce Store</text>

  <rect x="112" y="455" width="86" height="20" rx="10" fill="#fbbf24" opacity="0.22"/>
  <text x="155" y="469" text-anchor="middle" fill="#fbbf24" font-size="10" font-weight="700" font-family="system-ui,sans-serif">E-COMMERCE</text>

  <rect x="204" y="455" width="86" height="20" rx="10" fill="rgba(255,255,255,0.08)"/>
  <text x="247" y="469" text-anchor="middle" fill="rgba(255,255,255,0.5)" font-size="10" font-weight="600" font-family="system-ui,sans-serif">STOREFRONT</text>

  <rect x="296" y="455" width="86" height="20" rx="10" fill="rgba(255,255,255,0.06)"/>
  <text x="339" y="469" text-anchor="middle" fill="rgba(255,255,255,0.35)" font-size="10" font-weight="600" font-family="system-ui,sans-serif">VANILLA-JS</text>
</svg>