<svg width="800" height="500" viewBox="0 0 800 500" xmlns="http://www.w3.org/2000/svg">
  <defs>
    <linearGradient id="g" x1="0%" y1="0%" x2="100%" y2="100%">
      <stop offset="0%" stop-color="#041e1e"/>
      <stop offset="100%" stop-color="#021212"/>
    </linearGradient>
    <linearGradient id="bar" x1="0%" y1="0%" x2="100%" y2="0%">
      <stop offset="0%" stop-color="#2dd4bf" stop-opacity="0.9"/>
      <stop offset="100%" stop-color="#0d9488" stop-opacity="0.7"/>
    </linearGradient>
    <clipPath id="clip"><rect width="800" height="500" rx="0"/></clipPath>
    <filter id="softText">
      <feGaussianBlur stdDeviation="2"/>
    </filter>
  </defs>

  <rect width="800" height="500" fill="url(#g)" clip-path="url(#clip)"/>

  <ellipse cx="400" cy="220" rx="280" ry="160" fill="#2dd4bf" opacity="0.08"/>

  <rect x="32" y="32" width="736" height="348" rx="12" fill="rgba(0,0,0,0.45)"/>

  <rect x="32" y="32" width="736" height="38" rx="12" fill="#031414"/>
  <rect x="32" y="56" width="736" height="14" fill="#031414"/>

  <circle cx="62"  cy="51" r="7" fill="#ff5f57" opacity="0.95"/>
  <circle cx="88"  cy="51" r="7" fill="#febc2e" opacity="0.95"/>
  <circle cx="114" cy="51" r="7" fill="#28c840" opacity="0.95"/>

  <rect x="140" y="38" width="160" height="26" rx="5" fill="rgba(255,255,255,0.07)"/>
  <text x="160" y="55" fill="rgba(255,255,255,0.55)" font-size="11" font-family="monospace">github-user-search.html</text>

  <rect x="32" y="70" width="52" height="310" fill="rgba(0,0,0,0.2)"/>

  <text x="52" y="92" text-anchor="end" fill="rgba(255,255,255,0.15)" font-size="10" font-family="monospace">1</text>
  <rect x="60" y="82" width="140" height="13" rx="2" fill="rgba(255,255,255,0.06900788562582058)" opacity="1"/>
  <text x="52" y="110" text-anchor="end" fill="rgba(255,255,255,0.15)" font-size="10" font-family="monospace">2</text>
  <rect x="60" y="100" width="374" height="13" rx="2" fill="rgba(255,255,255,0.13107010748029457)" opacity="1"/>
  <rect x="446" y="100" width="51" height="13" rx="2" fill="rgba(255,255,255,0.07531352647936752)" opacity="0.6"/>
  <text x="52" y="128" text-anchor="end" fill="rgba(255,255,255,0.15)" font-size="10" font-family="monospace">3</text>
  <rect x="60" y="118" width="127" height="13" rx="2" fill="rgba(255,255,255,0.08961779436786141)" opacity="1"/>
  <rect x="199" y="118" width="104" height="13" rx="2" fill="rgba(255,255,255,0.04689416360270562)" opacity="0.6"/>
  <text x="52" y="146" text-anchor="end" fill="rgba(255,255,255,0.15)" font-size="10" font-family="monospace">4</text>
  <rect x="80" y="136" width="610" height="13" rx="2" fill="rgba(255,255,255,0.13644471952608894)" opacity="1"/>
  <text x="52" y="164" text-anchor="end" fill="rgba(255,255,255,0.15)" font-size="10" font-family="monospace">5</text>
  <rect x="80" y="154" width="125" height="13" rx="2" fill="rgba(255,255,255,0.07175765559351018)" opacity="1"/>
  <rect x="217" y="154" width="72" height="13" rx="2" fill="rgba(255,255,255,0.0892986675583056)" opacity="0.6"/>
  <text x="52" y="182" text-anchor="end" fill="rgba(255,255,255,0.15)" font-size="10" font-family="monospace">6</text>
  <rect x="80" y="172" width="524" height="13" rx="2" fill="rgba(255,255,255,0.08763236459987991)" opacity="1"/>
  <rect x="616" y="172" width="95" height="13" rx="2" fill="rgba(255,255,255,0.08463818706447217)" opacity="0.6"/>
  <text x="52" y="200" text-anchor="end" fill="rgba(255,255,255,0.15)" font-size="10" font-family="monospace">7</text>
  <rect x="100" y="190" width="385" height="13" rx="2" fill="rgba(255,255,255,0.10152061917854488)" opacity="1"/>
  <rect x="497" y="190" width="53" height="13" rx="2" fill="rgba(255,255,255,0.04338324584378471)" opacity="0.6"/>
  <text x="52" y="218" text-anchor="end" fill="rgba(255,255,255,0.15)" font-size="10" font-family="monospace">8</text>
  <rect x="60" y="208" width="686" height="13" rx="2" fill="#2dd4bf" opacity="0.55"/>
  <text x="52" y="236" text-anchor="end" fill="rgba(255,255,255,0.15)" font-size="10" font-family="monospace">9</text>
  <rect x="80" y="226" width="534" height="13" rx="2" fill="rgba(255,255,255,0.08942178097307257)" opacity="1"/>
  <text x="52" y="254" text-anchor="end" fill="rgba(255,255,255,0.15)" font-size="10" font-family="monospace">10</text>
  <rect x="100" y="244" width="449" height="13" rx="2" fill="rgba(255,255,255,0.1217274940530135)" opacity="1"/>
  <text x="52" y="272" text-anchor="end" fill="rgba(255,255,255,0.15)" font-size="10" font-family="monospace">11</text>
  <rect x="100" y="262" width="423" height="13" rx="2" fill="rgba(255,255,255,0.06559574168305744)" opacity="1"/>
  <text x="52" y="290" text-anchor="end" fill="rgba(255,255,255,0.15)" font-size="10" font-family="monospace">12</text>
  <rect x="60" y="280" width="483" height="13" rx="2" fill="#2dd4bf" opacity="0.55"/>
  <rect x="555" y="280" width="100" height="13" rx="2" fill="#0d9488" opacity="0.6"/>
  <text x="52" y="308" text-anchor="end" fill="rgba(255,255,255,0.15)" font-size="10" font-family="monospace">13</text>
  <rect x="60" y="298" width="318" height="13" rx="2" fill="rgba(255,255,255,0.13940498244003507)" opacity="1"/>
  <rect x="390" y="298" width="109" height="13" rx="2" fill="rgba(255,255,255,0.05677500775940135)" opacity="0.6"/>
  <text x="52" y="326" text-anchor="end" fill="rgba(255,255,255,0.15)" font-size="10" font-family="monospace">14</text>
  <rect x="80" y="316" width="519" height="13" rx="2" fill="rgba(255,255,255,0.07441657012664167)" opacity="1"/>

  <text
    x="400"
    y="295"
    text-anchor="middle"
    fill="rgba(248,250,252,0.22)"
    font-size="52"
    font-weight="900"
    font-family="system-ui,sans-serif"
    letter-spacing="-2"
  >
    GitHub User Search
  </text>

  <text
    x="400"
    y="295"
    text-anchor="middle"
    fill="rgba(255,255,255,0.06)"
    font-size="52"
    font-weight="900"
    font-family="system-ui,sans-serif"
    letter-spacing="-2"
    filter="url(#softText)"
  >
    GitHub User Search
  </text>

  <rect x="0" y="400" width="800" height="100" fill="rgba(0,0,0,0.55)"/>

  <rect x="0" y="400" width="800" height="3" fill="url(#bar)"/>

  <circle cx="72" cy="450" r="28" fill="#2dd4bf" opacity="0.18"/>
  <circle cx="72" cy="450" r="22" fill="#2dd4bf" opacity="0.22"/>
  <text x="72" y="456" text-anchor="middle" fill="#2dd4bf" font-size="15" font-weight="800" font-family="system-ui,sans-serif">MV</text>

  <text x="112" y="440" fill="rgba(255,255,255,0.92)" font-size="17" font-weight="800" font-family="system-ui,sans-serif" letter-spacing="-0.5">GitHub User Search</text>

  <rect x="112" y="455" width="37" height="20" rx="10" fill="#2dd4bf" opacity="0.22"/>
  <text x="130.5" y="469" text-anchor="middle" fill="#2dd4bf" font-size="10" font-weight="700" font-family="system-ui,sans-serif">API</text>

  <rect x="155" y="455" width="58" height="20" rx="10" fill="rgba(255,255,255,0.08)"/>
  <text x="184" y="469" text-anchor="middle" fill="rgba(255,255,255,0.5)" font-size="10" font-weight="600" font-family="system-ui,sans-serif">SEARCH</text>

  <rect x="219" y="455" width="58" height="20" rx="10" fill="rgba(255,255,255,0.06)"/>
  <text x="248" y="469" text-anchor="middle" fill="rgba(255,255,255,0.35)" font-size="10" font-weight="600" font-family="system-ui,sans-serif">GITHUB</text>
</svg>