<svg width="800" height="500" viewBox="0 0 800 500" xmlns="http://www.w3.org/2000/svg">
  <defs>
    <linearGradient id="g" x1="0%" y1="0%" x2="100%" y2="100%">
      <stop offset="0%" stop-color="#1e0c00"/>
      <stop offset="100%" stop-color="#120700"/>
    </linearGradient>
    <linearGradient id="bar" x1="0%" y1="0%" x2="100%" y2="0%">
      <stop offset="0%" stop-color="#fb923c" stop-opacity="0.9"/>
      <stop offset="100%" stop-color="#ea580c" stop-opacity="0.7"/>
    </linearGradient>
    <clipPath id="clip"><rect width="800" height="500" rx="0"/></clipPath>
    <filter id="softText">
      <feGaussianBlur stdDeviation="2"/>
    </filter>
  </defs>

  <rect width="800" height="500" fill="url(#g)" clip-path="url(#clip)"/>

  <ellipse cx="400" cy="220" rx="280" ry="160" fill="#fb923c" opacity="0.08"/>

  <rect x="32" y="32" width="736" height="348" rx="12" fill="rgba(0,0,0,0.45)"/>

  <rect x="32" y="32" width="736" height="38" rx="12" fill="#150800"/>
  <rect x="32" y="56" width="736" height="14" fill="#150800"/>

  <circle cx="62"  cy="51" r="7" fill="#ff5f57" opacity="0.95"/>
  <circle cx="88"  cy="51" r="7" fill="#febc2e" opacity="0.95"/>
  <circle cx="114" cy="51" r="7" fill="#28c840" opacity="0.95"/>

  <rect x="140" y="38" width="160" height="26" rx="5" fill="rgba(255,255,255,0.07)"/>
  <text x="160" y="55" fill="rgba(255,255,255,0.55)" font-size="11" font-family="monospace">hidden-difference-hunt.html</text>

  <rect x="32" y="70" width="52" height="310" fill="rgba(0,0,0,0.2)"/>

  <text x="52" y="92" text-anchor="end" fill="rgba(255,255,255,0.15)" font-size="10" font-family="monospace">1</text>
  <rect x="80" y="82" width="350" height="13" rx="2" fill="rgba(255,255,255,0.09303470450291287)" opacity="1"/>
  <rect x="442" y="82" width="57" height="13" rx="2" fill="rgba(255,255,255,0.048444995504907565)" opacity="0.6"/>
  <text x="52" y="110" text-anchor="end" fill="rgba(255,255,255,0.15)" font-size="10" font-family="monospace">2</text>
  <rect x="80" y="100" width="328" height="13" rx="2" fill="rgba(255,255,255,0.0607890017146219)" opacity="1"/>
  <rect x="420" y="100" width="97" height="13" rx="2" fill="rgba(255,255,255,0.05310933563232174)" opacity="0.6"/>
  <text x="52" y="128" text-anchor="end" fill="rgba(255,255,255,0.15)" font-size="10" font-family="monospace">3</text>
  <rect x="80" y="118" width="413" height="13" rx="2" fill="rgba(255,255,255,0.06134966949032379)" opacity="1"/>
  <text x="52" y="146" text-anchor="end" fill="rgba(255,255,255,0.15)" font-size="10" font-family="monospace">4</text>
  <rect x="80" y="136" width="168" height="13" rx="2" fill="rgba(255,255,255,0.09649588712409508)" opacity="1"/>
  <text x="52" y="164" text-anchor="end" fill="rgba(255,255,255,0.15)" font-size="10" font-family="monospace">5</text>
  <rect x="100" y="154" width="421" height="13" rx="2" fill="rgba(255,255,255,0.0667823968843516)" opacity="1"/>
  <rect x="533" y="154" width="85" height="13" rx="2" fill="rgba(255,255,255,0.06275615038181566)" opacity="0.6"/>
  <text x="52" y="182" text-anchor="end" fill="rgba(255,255,255,0.15)" font-size="10" font-family="monospace">6</text>
  <rect x="100" y="172" width="115" height="13" rx="2" fill="rgba(255,255,255,0.07241000410458306)" opacity="1"/>
  <rect x="227" y="172" width="89" height="13" rx="2" fill="rgba(255,255,255,0.05436989977126241)" opacity="0.6"/>
  <text x="52" y="200" text-anchor="end" fill="rgba(255,255,255,0.15)" font-size="10" font-family="monospace">7</text>
  <rect x="80" y="190" width="408" height="13" rx="2" fill="rgba(255,255,255,0.07950776853121533)" opacity="1"/>
  <rect x="500" y="190" width="82" height="13" rx="2" fill="rgba(255,255,255,0.0571772600773669)" opacity="0.6"/>
  <text x="52" y="218" text-anchor="end" fill="rgba(255,255,255,0.15)" font-size="10" font-family="monospace">8</text>
  <rect x="100" y="208" width="119" height="13" rx="2" fill="#fb923c" opacity="0.55"/>
  <rect x="231" y="208" width="80" height="13" rx="2" fill="#ea580c" opacity="0.6"/>
  <text x="52" y="236" text-anchor="end" fill="rgba(255,255,255,0.15)" font-size="10" font-family="monospace">9</text>
  <rect x="80" y="226" width="437" height="13" rx="2" fill="rgba(255,255,255,0.06721125284377748)" opacity="1"/>
  <rect x="529" y="226" width="94" height="13" rx="2" fill="rgba(255,255,255,0.06870069558934791)" opacity="0.6"/>
  <text x="52" y="254" text-anchor="end" fill="rgba(255,255,255,0.15)" font-size="10" font-family="monospace">10</text>
  <rect x="100" y="244" width="374" height="13" rx="2" fill="rgba(255,255,255,0.12740304447417217)" opacity="1"/>
  <rect x="486" y="244" width="38" height="13" rx="2" fill="rgba(255,255,255,0.05359480722192554)" opacity="0.6"/>
  <text x="52" y="272" text-anchor="end" fill="rgba(255,255,255,0.15)" font-size="10" font-family="monospace">11</text>
  <rect x="60" y="262" width="100" height="13" rx="2" fill="rgba(255,255,255,0.09998690667561883)" opacity="1"/>
  <text x="52" y="290" text-anchor="end" fill="rgba(255,255,255,0.15)" font-size="10" font-family="monospace">12</text>
  <rect x="60" y="280" width="348" height="13" rx="2" fill="#fb923c" opacity="0.55"/>
  <text x="52" y="308" text-anchor="end" fill="rgba(255,255,255,0.15)" font-size="10" font-family="monospace">13</text>
  <rect x="60" y="298" width="315" height="13" rx="2" fill="rgba(255,255,255,0.12628956753441356)" opacity="1"/>
  <text x="52" y="326" text-anchor="end" fill="rgba(255,255,255,0.15)" font-size="10" font-family="monospace">14</text>
  <rect x="60" y="316" width="97" height="13" rx="2" fill="rgba(255,255,255,0.08532172764309723)" opacity="1"/>

  <text
    x="400"
    y="295"
    text-anchor="middle"
    fill="rgba(248,250,252,0.22)"
    font-size="52"
    font-weight="900"
    font-family="system-ui,sans-serif"
    letter-spacing="-2"
  >
    Hidden Difference ...
  </text>

  <text
    x="400"
    y="295"
    text-anchor="middle"
    fill="rgba(255,255,255,0.06)"
    font-size="52"
    font-weight="900"
    font-family="system-ui,sans-serif"
    letter-spacing="-2"
    filter="url(#softText)"
  >
    Hidden Difference ...
  </text>

  <rect x="0" y="400" width="800" height="100" fill="rgba(0,0,0,0.55)"/>

  <rect x="0" y="400" width="800" height="3" fill="url(#bar)"/>

  <circle cx="72" cy="450" r="28" fill="#fb923c" opacity="0.18"/>
  <circle cx="72" cy="450" r="22" fill="#fb923c" opacity="0.22"/>
  <text x="72" y="456" text-anchor="middle" fill="#fb923c" font-size="15" font-weight="800" font-family="system-ui,sans-serif">SN</text>

  <text x="112" y="440" fill="rgba(255,255,255,0.92)" font-size="17" font-weight="800" font-family="system-ui,sans-serif" letter-spacing="-0.5">Hidden Difference Hunt</text>

  <rect x="112" y="455" width="44" height="20" rx="10" fill="#fb923c" opacity="0.22"/>
  <text x="134" y="469" text-anchor="middle" fill="#fb923c" font-size="10" font-weight="700" font-family="system-ui,sans-serif">HTML</text>

  <rect x="162" y="455" width="37" height="20" rx="10" fill="rgba(255,255,255,0.08)"/>
  <text x="180.5" y="469" text-anchor="middle" fill="rgba(255,255,255,0.5)" font-size="10" font-weight="600" font-family="system-ui,sans-serif">CSS</text>

  <rect x="205" y="455" width="86" height="20" rx="10" fill="rgba(255,255,255,0.06)"/>
  <text x="248" y="469" text-anchor="middle" fill="rgba(255,255,255,0.35)" font-size="10" font-weight="600" font-family="system-ui,sans-serif">JAVASCRIPT</text>
</svg>