<svg width="800" height="500" viewBox="0 0 800 500" xmlns="http://www.w3.org/2000/svg">
  <defs>
    <linearGradient id="g" x1="0%" y1="0%" x2="100%" y2="100%">
      <stop offset="0%" stop-color="#041e1e"/>
      <stop offset="100%" stop-color="#021212"/>
    </linearGradient>
    <linearGradient id="bar" x1="0%" y1="0%" x2="100%" y2="0%">
      <stop offset="0%" stop-color="#2dd4bf" stop-opacity="0.9"/>
      <stop offset="100%" stop-color="#0d9488" stop-opacity="0.7"/>
    </linearGradient>
    <clipPath id="clip"><rect width="800" height="500" rx="0"/></clipPath>
    <filter id="softText">
      <feGaussianBlur stdDeviation="2"/>
    </filter>
  </defs>

  <rect width="800" height="500" fill="url(#g)" clip-path="url(#clip)"/>

  <ellipse cx="400" cy="220" rx="280" ry="160" fill="#2dd4bf" opacity="0.08"/>

  <rect x="32" y="32" width="736" height="348" rx="12" fill="rgba(0,0,0,0.45)"/>

  <rect x="32" y="32" width="736" height="38" rx="12" fill="#031414"/>
  <rect x="32" y="56" width="736" height="14" fill="#031414"/>

  <circle cx="62"  cy="51" r="7" fill="#ff5f57" opacity="0.95"/>
  <circle cx="88"  cy="51" r="7" fill="#febc2e" opacity="0.95"/>
  <circle cx="114" cy="51" r="7" fill="#28c840" opacity="0.95"/>

  <rect x="140" y="38" width="160" height="26" rx="5" fill="rgba(255,255,255,0.07)"/>
  <text x="160" y="55" fill="rgba(255,255,255,0.55)" font-size="11" font-family="monospace">movie-search-app.html</text>

  <rect x="32" y="70" width="52" height="310" fill="rgba(0,0,0,0.2)"/>

  <text x="52" y="92" text-anchor="end" fill="rgba(255,255,255,0.15)" font-size="10" font-family="monospace">1</text>
  <rect x="80" y="82" width="562" height="13" rx="2" fill="rgba(255,255,255,0.118335033594243)" opacity="1"/>
  <rect x="654" y="82" width="35" height="13" rx="2" fill="rgba(255,255,255,0.0674705315654796)" opacity="0.6"/>
  <text x="52" y="110" text-anchor="end" fill="rgba(255,255,255,0.15)" font-size="10" font-family="monospace">2</text>
  <rect x="100" y="100" width="539" height="13" rx="2" fill="rgba(255,255,255,0.10500290338997798)" opacity="1"/>
  <rect x="651" y="100" width="85" height="13" rx="2" fill="rgba(255,255,255,0.08246382252137732)" opacity="0.6"/>
  <text x="52" y="128" text-anchor="end" fill="rgba(255,255,255,0.15)" font-size="10" font-family="monospace">3</text>
  <rect x="60" y="118" width="363" height="13" rx="2" fill="rgba(255,255,255,0.08944029734224088)" opacity="1"/>
  <rect x="435" y="118" width="80" height="13" rx="2" fill="rgba(255,255,255,0.05414920577410357)" opacity="0.6"/>
  <text x="52" y="146" text-anchor="end" fill="rgba(255,255,255,0.15)" font-size="10" font-family="monospace">4</text>
  <rect x="80" y="136" width="464" height="13" rx="2" fill="#2dd4bf" opacity="0.55"/>
  <text x="52" y="164" text-anchor="end" fill="rgba(255,255,255,0.15)" font-size="10" font-family="monospace">5</text>
  <rect x="80" y="154" width="87" height="13" rx="2" fill="rgba(255,255,255,0.07633890960745954)" opacity="1"/>
  <rect x="179" y="154" width="86" height="13" rx="2" fill="rgba(255,255,255,0.07560508344918608)" opacity="0.6"/>
  <text x="52" y="182" text-anchor="end" fill="rgba(255,255,255,0.15)" font-size="10" font-family="monospace">6</text>
  <rect x="60" y="172" width="284" height="13" rx="2" fill="rgba(255,255,255,0.13890995101977838)" opacity="1"/>
  <text x="52" y="200" text-anchor="end" fill="rgba(255,255,255,0.15)" font-size="10" font-family="monospace">7</text>
  <rect x="80" y="190" width="426" height="13" rx="2" fill="rgba(255,255,255,0.07514286928231428)" opacity="1"/>
  <text x="52" y="218" text-anchor="end" fill="rgba(255,255,255,0.15)" font-size="10" font-family="monospace">8</text>
  <rect x="60" y="208" width="574" height="13" rx="2" fill="rgba(255,255,255,0.08437542884246804)" opacity="1"/>
  <text x="52" y="236" text-anchor="end" fill="rgba(255,255,255,0.15)" font-size="10" font-family="monospace">9</text>
  <rect x="60" y="226" width="239" height="13" rx="2" fill="rgba(255,255,255,0.06602773940331017)" opacity="1"/>
  <rect x="311" y="226" width="72" height="13" rx="2" fill="rgba(255,255,255,0.08413787863313638)" opacity="0.6"/>
  <text x="52" y="254" text-anchor="end" fill="rgba(255,255,255,0.15)" font-size="10" font-family="monospace">10</text>
  <rect x="60" y="244" width="307" height="13" rx="2" fill="rgba(255,255,255,0.09685216310360753)" opacity="1"/>
  <text x="52" y="272" text-anchor="end" fill="rgba(255,255,255,0.15)" font-size="10" font-family="monospace">11</text>
  <rect x="60" y="262" width="685" height="13" rx="2" fill="rgba(255,255,255,0.11595436822063158)" opacity="1"/>
  <text x="52" y="290" text-anchor="end" fill="rgba(255,255,255,0.15)" font-size="10" font-family="monospace">12</text>
  <rect x="60" y="280" width="227" height="13" rx="2" fill="rgba(255,255,255,0.10694295087059563)" opacity="1"/>
  <rect x="299" y="280" width="50" height="13" rx="2" fill="rgba(255,255,255,0.06086058200124199)" opacity="0.6"/>
  <text x="52" y="308" text-anchor="end" fill="rgba(255,255,255,0.15)" font-size="10" font-family="monospace">13</text>
  <rect x="80" y="298" width="540" height="13" rx="2" fill="rgba(255,255,255,0.06568712819500061)" opacity="1"/>
  <rect x="632" y="298" width="104" height="13" rx="2" fill="rgba(255,255,255,0.06068683406586918)" opacity="0.6"/>
  <text x="52" y="326" text-anchor="end" fill="rgba(255,255,255,0.15)" font-size="10" font-family="monospace">14</text>
  <rect x="60" y="316" width="160" height="13" rx="2" fill="rgba(255,255,255,0.1214392921471594)" opacity="1"/>
  <rect x="232" y="316" width="83" height="13" rx="2" fill="rgba(255,255,255,0.08212378591581337)" opacity="0.6"/>

  <text
    x="400"
    y="295"
    text-anchor="middle"
    fill="rgba(248,250,252,0.22)"
    font-size="52"
    font-weight="900"
    font-family="system-ui,sans-serif"
    letter-spacing="-2"
  >
    Movie Search App
  </text>

  <text
    x="400"
    y="295"
    text-anchor="middle"
    fill="rgba(255,255,255,0.06)"
    font-size="52"
    font-weight="900"
    font-family="system-ui,sans-serif"
    letter-spacing="-2"
    filter="url(#softText)"
  >
    Movie Search App
  </text>

  <rect x="0" y="400" width="800" height="100" fill="rgba(0,0,0,0.55)"/>

  <rect x="0" y="400" width="800" height="3" fill="url(#bar)"/>

  <circle cx="72" cy="450" r="28" fill="#2dd4bf" opacity="0.18"/>
  <circle cx="72" cy="450" r="22" fill="#2dd4bf" opacity="0.22"/>
  <text x="72" y="456" text-anchor="middle" fill="#2dd4bf" font-size="15" font-weight="800" font-family="system-ui,sans-serif">GM</text>

  <text x="112" y="440" fill="rgba(255,255,255,0.92)" font-size="17" font-weight="800" font-family="system-ui,sans-serif" letter-spacing="-0.5">Movie Search App</text>

  <rect x="112" y="455" width="37" height="20" rx="10" fill="#2dd4bf" opacity="0.22"/>
  <text x="130.5" y="469" text-anchor="middle" fill="#2dd4bf" font-size="10" font-weight="700" font-family="system-ui,sans-serif">API</text>

  <rect x="155" y="455" width="86" height="20" rx="10" fill="rgba(255,255,255,0.08)"/>
  <text x="198" y="469" text-anchor="middle" fill="rgba(255,255,255,0.5)" font-size="10" font-weight="600" font-family="system-ui,sans-serif">JAVASCRIPT</text>

  <rect x="247" y="455" width="86" height="20" rx="10" fill="rgba(255,255,255,0.06)"/>
  <text x="290" y="469" text-anchor="middle" fill="rgba(255,255,255,0.35)" font-size="10" font-weight="600" font-family="system-ui,sans-serif">VANILLA-JS</text>
</svg>