<svg width="800" height="500" viewBox="0 0 800 500" xmlns="http://www.w3.org/2000/svg">
  <defs>
    <linearGradient id="g" x1="0%" y1="0%" x2="100%" y2="100%">
      <stop offset="0%" stop-color="#1a1400"/>
      <stop offset="100%" stop-color="#110d00"/>
    </linearGradient>
    <linearGradient id="bar" x1="0%" y1="0%" x2="100%" y2="0%">
      <stop offset="0%" stop-color="#fbbf24" stop-opacity="0.9"/>
      <stop offset="100%" stop-color="#f59e0b" stop-opacity="0.7"/>
    </linearGradient>
    <clipPath id="clip"><rect width="800" height="500" rx="0"/></clipPath>
    <filter id="softText">
      <feGaussianBlur stdDeviation="2"/>
    </filter>
  </defs>

  <rect width="800" height="500" fill="url(#g)" clip-path="url(#clip)"/>

  <ellipse cx="400" cy="220" rx="280" ry="160" fill="#fbbf24" opacity="0.08"/>

  <rect x="32" y="32" width="736" height="348" rx="12" fill="rgba(0,0,0,0.45)"/>

  <rect x="32" y="32" width="736" height="38" rx="12" fill="#130f00"/>
  <rect x="32" y="56" width="736" height="14" fill="#130f00"/>

  <circle cx="62"  cy="51" r="7" fill="#ff5f57" opacity="0.95"/>
  <circle cx="88"  cy="51" r="7" fill="#febc2e" opacity="0.95"/>
  <circle cx="114" cy="51" r="7" fill="#28c840" opacity="0.95"/>

  <rect x="140" y="38" width="160" height="26" rx="5" fill="rgba(255,255,255,0.07)"/>
  <text x="160" y="55" fill="rgba(255,255,255,0.55)" font-size="11" font-family="monospace">netflix-clone.html</text>

  <rect x="32" y="70" width="52" height="310" fill="rgba(0,0,0,0.2)"/>

  <text x="52" y="92" text-anchor="end" fill="rgba(255,255,255,0.15)" font-size="10" font-family="monospace">1</text>
  <rect x="80" y="82" width="312" height="13" rx="2" fill="rgba(255,255,255,0.1293546923783968)" opacity="1"/>
  <rect x="404" y="82" width="56" height="13" rx="2" fill="rgba(255,255,255,0.05794433201848165)" opacity="0.6"/>
  <text x="52" y="110" text-anchor="end" fill="rgba(255,255,255,0.15)" font-size="10" font-family="monospace">2</text>
  <rect x="60" y="100" width="615" height="13" rx="2" fill="rgba(255,255,255,0.08375736602203859)" opacity="1"/>
  <text x="52" y="128" text-anchor="end" fill="rgba(255,255,255,0.15)" font-size="10" font-family="monospace">3</text>
  <rect x="60" y="118" width="568" height="13" rx="2" fill="rgba(255,255,255,0.07654437169817843)" opacity="1"/>
  <rect x="640" y="118" width="52" height="13" rx="2" fill="rgba(255,255,255,0.05164428444151867)" opacity="0.6"/>
  <text x="52" y="146" text-anchor="end" fill="rgba(255,255,255,0.15)" font-size="10" font-family="monospace">4</text>
  <rect x="60" y="136" width="299" height="13" rx="2" fill="#fbbf24" opacity="0.55"/>
  <rect x="371" y="136" width="38" height="13" rx="2" fill="#f59e0b" opacity="0.6"/>
  <text x="52" y="164" text-anchor="end" fill="rgba(255,255,255,0.15)" font-size="10" font-family="monospace">5</text>
  <rect x="60" y="154" width="144" height="13" rx="2" fill="rgba(255,255,255,0.1047820534102577)" opacity="1"/>
  <rect x="216" y="154" width="104" height="13" rx="2" fill="rgba(255,255,255,0.0699378049396765)" opacity="0.6"/>
  <text x="52" y="182" text-anchor="end" fill="rgba(255,255,255,0.15)" font-size="10" font-family="monospace">6</text>
  <rect x="100" y="172" width="658" height="13" rx="2" fill="rgba(255,255,255,0.09144875659408253)" opacity="1"/>
  <text x="52" y="200" text-anchor="end" fill="rgba(255,255,255,0.15)" font-size="10" font-family="monospace">7</text>
  <rect x="60" y="190" width="374" height="13" rx="2" fill="rgba(255,255,255,0.1039770546285382)" opacity="1"/>
  <rect x="446" y="190" width="86" height="13" rx="2" fill="rgba(255,255,255,0.042115997102138585)" opacity="0.6"/>
  <text x="52" y="218" text-anchor="end" fill="rgba(255,255,255,0.15)" font-size="10" font-family="monospace">8</text>
  <rect x="100" y="208" width="434" height="13" rx="2" fill="#fbbf24" opacity="0.55"/>
  <rect x="546" y="208" width="70" height="13" rx="2" fill="#f59e0b" opacity="0.6"/>
  <text x="52" y="236" text-anchor="end" fill="rgba(255,255,255,0.15)" font-size="10" font-family="monospace">9</text>
  <rect x="100" y="226" width="85" height="13" rx="2" fill="rgba(255,255,255,0.1375454156095035)" opacity="1"/>
  <rect x="197" y="226" width="88" height="13" rx="2" fill="rgba(255,255,255,0.04494295223731151)" opacity="0.6"/>
  <text x="52" y="254" text-anchor="end" fill="rgba(255,255,255,0.15)" font-size="10" font-family="monospace">10</text>
  <rect x="80" y="244" width="180" height="13" rx="2" fill="rgba(255,255,255,0.11245795916124665)" opacity="1"/>
  <text x="52" y="272" text-anchor="end" fill="rgba(255,255,255,0.15)" font-size="10" font-family="monospace">11</text>
  <rect x="60" y="262" width="148" height="13" rx="2" fill="rgba(255,255,255,0.13987387854602978)" opacity="1"/>
  <text x="52" y="290" text-anchor="end" fill="rgba(255,255,255,0.15)" font-size="10" font-family="monospace">12</text>
  <rect x="80" y="280" width="116" height="13" rx="2" fill="#fbbf24" opacity="0.55"/>
  <text x="52" y="308" text-anchor="end" fill="rgba(255,255,255,0.15)" font-size="10" font-family="monospace">13</text>
  <rect x="60" y="298" width="482" height="13" rx="2" fill="rgba(255,255,255,0.13210065457785983)" opacity="1"/>
  <text x="52" y="326" text-anchor="end" fill="rgba(255,255,255,0.15)" font-size="10" font-family="monospace">14</text>
  <rect x="80" y="316" width="276" height="13" rx="2" fill="rgba(255,255,255,0.0983199356026761)" opacity="1"/>

  <text
    x="400"
    y="295"
    text-anchor="middle"
    fill="rgba(248,250,252,0.22)"
    font-size="52"
    font-weight="900"
    font-family="system-ui,sans-serif"
    letter-spacing="-2"
  >
    Netflix Clone
  </text>

  <text
    x="400"
    y="295"
    text-anchor="middle"
    fill="rgba(255,255,255,0.06)"
    font-size="52"
    font-weight="900"
    font-family="system-ui,sans-serif"
    letter-spacing="-2"
    filter="url(#softText)"
  >
    Netflix Clone
  </text>

  <rect x="0" y="400" width="800" height="100" fill="rgba(0,0,0,0.55)"/>

  <rect x="0" y="400" width="800" height="3" fill="url(#bar)"/>

  <circle cx="72" cy="450" r="28" fill="#fbbf24" opacity="0.18"/>
  <circle cx="72" cy="450" r="22" fill="#fbbf24" opacity="0.22"/>
  <text x="72" y="456" text-anchor="middle" fill="#fbbf24" font-size="15" font-weight="800" font-family="system-ui,sans-serif">GM</text>

  <text x="112" y="440" fill="rgba(255,255,255,0.92)" font-size="17" font-weight="800" font-family="system-ui,sans-serif" letter-spacing="-0.5">Netflix Clone</text>

  <rect x="112" y="455" width="65" height="20" rx="10" fill="#fbbf24" opacity="0.22"/>
  <text x="144.5" y="469" text-anchor="middle" fill="#fbbf24" font-size="10" font-weight="700" font-family="system-ui,sans-serif">NETFLIX</text>

  <rect x="183" y="455" width="79" height="20" rx="10" fill="rgba(255,255,255,0.08)"/>
  <text x="222.5" y="469" text-anchor="middle" fill="rgba(255,255,255,0.5)" font-size="10" font-weight="600" font-family="system-ui,sans-serif">STREAMING</text>

  <rect x="268" y="455" width="86" height="20" rx="10" fill="rgba(255,255,255,0.06)"/>
  <text x="311" y="469" text-anchor="middle" fill="rgba(255,255,255,0.35)" font-size="10" font-weight="600" font-family="system-ui,sans-serif">VANILLA-JS</text>
</svg>